<svg width="60" height="60" viewBox="0 0 60 60" fill="none" xmlns="http://www.w3.org/2000/svg">
<path d="M29.9998 53.1794C29.8156 53.1794 29.6314 53.118 29.4779 52.9966L20.5003 45.851C16.3951 42.5831 13.4621 37.9743 12.2426 32.8701C12.2398 32.8603 12.2384 32.8492 12.2356 32.8394L8.63561 14.8226C8.54492 14.3705 8.83794 13.931 9.28864 13.8389C14.0705 12.8608 27.0026 9.74496 29.3761 7.09799C29.5351 6.92078 29.7612 6.82031 29.9998 6.82031C30.2384 6.82031 30.4645 6.92217 30.6235 7.09799C32.997 9.74496 45.9291 12.8608 50.711 13.8389C51.1631 13.931 51.4547 14.3705 51.364 14.8226L47.764 32.8394C47.7626 32.8492 47.7598 32.8603 47.757 32.8701C46.5375 37.9729 43.6045 42.5831 39.4993 45.851L30.5217 52.9966C30.3682 53.118 30.184 53.1794 29.9998 53.1794ZM13.8751 32.4961C15.011 37.2319 17.7333 41.5087 21.544 44.5408L29.9998 51.2719L38.4556 44.5408C42.2649 41.5087 44.9886 37.2319 46.1245 32.4961L49.5584 15.3082C46.0045 14.5505 33.8342 11.7919 29.9984 8.78775C26.1626 11.7905 13.9924 14.5505 10.4384 15.3082L13.8751 32.4961Z" fill="black"/>
<path d="M32.8059 38.2795H27.191C26.7291 38.2795 26.3538 37.9042 26.3538 37.4423V32.3033H21.2161C20.7543 32.3033 20.3789 31.9279 20.3789 31.466V25.8526C20.3789 25.3907 20.7543 25.0153 21.2161 25.0153H26.3538V19.8763C26.3538 19.4144 26.7291 19.0391 27.191 19.0391H32.8059C33.2677 19.0391 33.6431 19.4144 33.6431 19.8763V25.0153H38.7822C39.244 25.0153 39.6194 25.3907 39.6194 25.8526V31.466C39.6194 31.9279 39.244 32.3033 38.7822 32.3033H33.6431V37.4423C33.6431 37.9042 33.2691 38.2795 32.8059 38.2795ZM28.0296 36.6051H31.9701V31.466C31.9701 31.0042 32.3454 30.6288 32.8073 30.6288H37.9464V26.6898H32.8073C32.3454 26.6898 31.9701 26.3144 31.9701 25.8526V20.7135H28.0296V25.8526C28.0296 26.3144 27.6543 26.6898 27.1924 26.6898H22.0547V30.6288H27.1924C27.6543 30.6288 28.0296 31.0042 28.0296 31.466V36.6051Z" fill="#203F9F"/>
</svg>
