<svg width="60" height="60" viewBox="0 0 60 60" fill="none" xmlns="http://www.w3.org/2000/svg">
<path d="M30.6874 47.0322C30.1516 47.0322 29.5321 46.9541 28.8191 46.7588C23.8098 45.3871 11.7567 33.1555 11.246 32.635C10.9056 32.289 10.9112 31.7322 11.2572 31.3918C11.6032 31.0513 12.16 31.0569 12.5005 31.4029C15.887 34.8508 25.5037 44.0267 29.2837 45.062C30.3288 45.3481 31.0293 45.3034 31.4758 45.1778C30.4739 44.2527 29.2056 42.8127 27.3274 40.6806C26.606 39.8629 25.7898 38.935 24.8688 37.9025C24.5451 37.5397 24.5772 36.9843 24.94 36.6606C25.3028 36.3369 25.8581 36.369 26.1805 36.7318C27.1042 37.7685 27.9233 38.6978 28.6446 39.5169C30.873 42.0467 32.2181 43.5746 33.1907 44.3336C34.0544 45.009 34.3781 44.8932 34.8344 44.6476C35.4233 44.3308 35.9981 43.7169 36.4293 43.1294C35.4246 42.2057 34.1521 40.7601 32.2642 38.6169C31.5442 37.7992 30.7265 36.8713 29.807 35.8388C29.4833 35.476 29.5153 34.9206 29.8781 34.5969C30.2395 34.2732 30.7963 34.3053 31.1186 34.6681C32.0423 35.7048 32.8614 36.6341 33.5828 37.4532C35.7051 39.8629 37.0265 41.3629 37.9879 42.1569C38.0074 42.1667 38.0284 42.1778 38.0479 42.189C38.1358 42.2406 38.2126 42.3062 38.2753 42.3801C39.0316 42.9313 39.3428 42.8141 39.7726 42.5839C40.2944 42.302 40.8051 41.7885 41.214 41.2681C41.1219 41.2039 41.0298 41.1355 40.9363 41.0615C39.8367 40.2006 38.4512 38.6281 36.1558 36.0229C35.4344 35.2053 34.6181 34.2774 33.6972 33.2434C33.3735 32.8806 33.4056 32.3253 33.7684 32.0015C34.1312 31.6778 34.6865 31.7099 35.0088 32.0727C35.934 33.1095 36.7516 34.0401 37.4744 34.8592C39.7028 37.389 41.0479 38.9155 42.0191 39.676C42.2033 39.8197 42.3623 39.9285 42.5046 40.0067C42.6679 39.9997 42.834 40.0387 42.986 40.1281C43.0153 40.1448 43.0419 40.1629 43.0684 40.1825C43.2805 40.1853 43.4591 40.1001 43.6628 39.9899C43.8149 39.8992 44.3563 39.4429 44.4721 39.3062C45.0065 38.6657 44.853 37.8229 44.4065 37.0988C44.3814 37.0653 44.3591 37.029 44.3381 36.9927C44.1763 36.7513 43.9837 36.5239 43.7744 36.3257C41.2767 33.9564 35.68 28.9625 32.2293 26.0713C30.8898 27.2308 27.6428 29.769 24.8912 29.769C24.7977 29.769 24.7056 29.7662 24.6135 29.7606C22.8735 29.6476 22.0098 28.7853 21.5912 28.0806C20.7707 26.7006 20.9981 24.8001 21.5856 23.529C21.9986 22.636 23.3088 20.9281 24.9498 19.3862H15.7126C15.227 19.3862 14.8335 18.9927 14.8335 18.5071C14.8335 18.0215 15.227 17.6281 15.7126 17.6281H27.1153C28.3363 16.7964 29.6019 16.2243 30.7377 16.209C30.7684 16.209 30.7991 16.209 30.8298 16.209C33.986 16.209 43.0195 18.2504 43.406 18.3383C43.8791 18.4457 44.1763 18.9174 44.0688 19.3904C43.9614 19.8634 43.4912 20.1606 43.0167 20.0532C42.9233 20.0322 33.6246 17.9322 30.7614 17.9671C28.3488 17.9992 23.966 22.5676 23.1805 24.2657C22.787 25.1169 22.6335 26.3922 23.1023 27.1806C23.4009 27.6829 23.9326 27.9536 24.7265 28.0039C26.9688 28.1504 30.4502 25.3569 31.6014 24.2685C31.9237 23.9629 32.4233 23.9462 32.7651 24.2294C36.1572 27.0327 42.3191 32.5206 44.9828 35.0476C45.0763 35.1369 45.167 35.229 45.2549 35.3239L47.8251 33.2546C48.2033 32.9504 48.7558 33.0104 49.0614 33.3885C49.3656 33.7667 49.3056 34.3206 48.9274 34.6248L46.2177 36.8057C46.7284 37.9988 46.7256 39.3439 45.8186 40.4294C45.5786 40.7169 44.8391 41.349 44.493 41.536C43.9405 41.8332 43.42 41.9671 42.8995 41.935C42.4349 42.5936 41.6186 43.5829 40.6028 44.1299C39.64 44.649 38.7763 44.6713 37.833 44.1746C37.353 44.8234 36.5926 45.6913 35.6646 46.1908C34.7577 46.6792 33.9372 46.7281 33.0581 46.3164C32.6005 46.6694 31.8386 47.0322 30.6874 47.0322Z" fill="black"/>
<path d="M55.8323 35.6765H48.8612C48.4914 35.6765 48.1607 35.4449 48.0351 35.0961L41.9639 18.324C41.8593 18.0337 41.9137 17.71 42.1077 17.47C42.2011 17.3542 44.4658 14.6277 49.6788 13.4388C52.6816 12.7537 55.7765 13.0063 55.9063 13.0175C56.3612 13.0565 56.7114 13.4361 56.7114 13.8937V34.7974C56.7114 35.283 56.3179 35.6765 55.8323 35.6765ZM49.4793 33.9184H54.9546V14.7323C53.8914 14.7044 51.9351 14.7295 50.0709 15.1551C46.5086 15.9672 44.5328 17.5454 43.803 18.2388L49.4793 33.9184ZM11.1379 35.6765H4.16813C3.68255 35.6765 3.28906 35.283 3.28906 34.7974V13.8951C3.28906 13.4235 3.66162 13.0356 4.13185 13.0175C4.25883 13.0133 7.28813 12.8961 10.2812 13.4333C14.6793 14.2244 16.4737 15.3184 16.5477 15.3644C16.8756 15.5681 17.0319 15.963 16.9328 16.3356L11.9877 35.0235C11.8858 35.4086 11.537 35.6765 11.1379 35.6765ZM5.0472 33.9184H10.4626L15.0505 16.5784C14.2719 16.2379 12.6546 15.6449 9.96999 15.1621C8.0765 14.8216 6.12441 14.763 5.0472 14.7602V33.9184Z" fill="#203F9F"/>
</svg>
