<svg width="60" height="60" viewBox="0 0 60 60" fill="none" xmlns="http://www.w3.org/2000/svg">
<path d="M27.3742 53.211H17.7365C17.2509 53.211 16.8574 52.8175 16.8574 52.3319V39.6886C16.8574 39.2031 17.2509 38.8096 17.7365 38.8096H27.3742C27.8598 38.8096 28.2532 39.2031 28.2532 39.6886V52.3319C28.2532 52.8175 27.8598 53.211 27.3742 53.211ZM18.6156 51.4528H26.4951V40.5677H18.6156V51.4528Z" fill="black"/>
<path d="M22.5724 52.8701C22.0868 52.8701 21.6934 52.4767 21.6934 51.9911V40.0441C21.6934 39.5585 22.0868 39.165 22.5724 39.165C22.5836 39.165 22.5934 39.165 22.6045 39.165C23.0901 39.165 23.4836 39.5585 23.4836 40.0441V51.9743C23.4836 52.3246 23.2785 52.626 22.9827 52.7683C22.8599 52.8339 22.7203 52.8701 22.5724 52.8701Z" fill="black"/>
<path d="M10.8693 53.2105C10.6363 53.2105 10.413 53.1184 10.2484 52.9538C10.0837 52.7891 9.99023 52.5645 9.99023 52.3314V7.69562C9.99023 7.21004 10.3837 6.81655 10.8679 6.81655L34.3781 6.79004C34.3781 6.79004 34.3781 6.79004 34.3795 6.79004C34.6126 6.79004 34.8358 6.88213 35.0005 7.04678C35.1651 7.21143 35.2586 7.43609 35.2586 7.66911V52.3049C35.2586 52.7905 34.8651 53.184 34.3809 53.184L10.8693 53.2105C10.8707 53.2105 10.8693 53.2105 10.8693 53.2105ZM11.7484 8.57329V51.451L33.5005 51.4258V8.54818L11.7484 8.57329Z" fill="black"/>
<path d="M18.758 15.8203C18.2724 15.8203 17.8789 15.4268 17.8789 14.9412V11.4836C17.8789 10.998 18.2724 10.6045 18.758 10.6045C19.2436 10.6045 19.637 10.998 19.637 11.4836V14.9412C19.637 15.4268 19.2436 15.8203 18.758 15.8203Z" fill="#203F9F"/>
<path d="M22.4904 15.8203C22.0048 15.8203 21.6113 15.4268 21.6113 14.9412V11.4836C21.6113 10.998 22.0048 10.6045 22.4904 10.6045C22.976 10.6045 23.3695 10.998 23.3695 11.4836V14.9412C23.3695 15.4268 22.976 15.8203 22.4904 15.8203Z" fill="#203F9F"/>
<path d="M26.2228 15.8203C25.7372 15.8203 25.3438 15.4268 25.3438 14.9412V11.4836C25.3438 10.998 25.7372 10.6045 26.2228 10.6045C26.7084 10.6045 27.1019 10.998 27.1019 11.4836V14.9412C27.1019 15.4268 26.7084 15.8203 26.2228 15.8203Z" fill="#203F9F"/>
<path d="M18.758 22.7363C18.2724 22.7363 17.8789 22.3428 17.8789 21.8573V18.3996C17.8789 17.914 18.2724 17.5205 18.758 17.5205C19.2436 17.5205 19.637 17.914 19.637 18.3996V21.8573C19.637 22.3428 19.2436 22.7363 18.758 22.7363Z" fill="#203F9F"/>
<path d="M22.4904 22.7363C22.0048 22.7363 21.6113 22.3428 21.6113 21.8573V18.3996C21.6113 17.914 22.0048 17.5205 22.4904 17.5205C22.976 17.5205 23.3695 17.914 23.3695 18.3996V21.8573C23.3695 22.3428 22.976 22.7363 22.4904 22.7363Z" fill="#203F9F"/>
<path d="M26.2228 22.7363C25.7372 22.7363 25.3438 22.3428 25.3438 21.8573V18.3996C25.3438 17.914 25.7372 17.5205 26.2228 17.5205C26.7084 17.5205 27.1019 17.914 27.1019 18.3996V21.8573C27.1019 22.3428 26.7084 22.7363 26.2228 22.7363Z" fill="#203F9F"/>
<path d="M18.758 29.6514C18.2724 29.6514 17.8789 29.2579 17.8789 28.7723V25.3146C17.8789 24.829 18.2724 24.4355 18.758 24.4355C19.2436 24.4355 19.637 24.829 19.637 25.3146V28.7723C19.637 29.2579 19.2436 29.6514 18.758 29.6514Z" fill="#203F9F"/>
<path d="M22.4904 29.6514C22.0048 29.6514 21.6113 29.2579 21.6113 28.7723V25.3146C21.6113 24.829 22.0048 24.4355 22.4904 24.4355C22.976 24.4355 23.3695 24.829 23.3695 25.3146V28.7723C23.3695 29.2579 22.976 29.6514 22.4904 29.6514Z" fill="#203F9F"/>
<path d="M26.2228 29.6514C25.7372 29.6514 25.3438 29.2579 25.3438 28.7723V25.3146C25.3438 24.829 25.7372 24.4355 26.2228 24.4355C26.7084 24.4355 27.1019 24.829 27.1019 25.3146V28.7723C27.1019 29.2579 26.7084 29.6514 26.2228 29.6514Z" fill="#203F9F"/>
<path d="M18.758 36.5684C18.2724 36.5684 17.8789 36.1749 17.8789 35.6893V32.2316C17.8789 31.746 18.2724 31.3525 18.758 31.3525C19.2436 31.3525 19.637 31.746 19.637 32.2316V35.6893C19.637 36.1749 19.2436 36.5684 18.758 36.5684Z" fill="#203F9F"/>
<path d="M22.4904 36.5684C22.0048 36.5684 21.6113 36.1749 21.6113 35.6893V32.2316C21.6113 31.746 22.0048 31.3525 22.4904 31.3525C22.976 31.3525 23.3695 31.746 23.3695 32.2316V35.6893C23.3695 36.1749 22.976 36.5684 22.4904 36.5684Z" fill="#203F9F"/>
<path d="M26.2228 36.5684C25.7372 36.5684 25.3438 36.1749 25.3438 35.6893V32.2316C25.3438 31.746 25.7372 31.3525 26.2228 31.3525C26.7084 31.3525 27.1019 31.746 27.1019 32.2316V35.6893C27.1019 36.1749 26.7084 36.5684 26.2228 36.5684Z" fill="#203F9F"/>
<path d="M29.9552 15.8203C29.4697 15.8203 29.0762 15.4268 29.0762 14.9412V11.4836C29.0762 10.998 29.4697 10.6045 29.9552 10.6045C30.4408 10.6045 30.8343 10.998 30.8343 11.4836V14.9412C30.8343 15.4268 30.4408 15.8203 29.9552 15.8203Z" fill="#203F9F"/>
<path d="M29.9552 22.7363C29.4697 22.7363 29.0762 22.3428 29.0762 21.8573V18.3996C29.0762 17.914 29.4697 17.5205 29.9552 17.5205C30.4408 17.5205 30.8343 17.914 30.8343 18.3996V21.8573C30.8343 22.3428 30.4408 22.7363 29.9552 22.7363Z" fill="#203F9F"/>
<path d="M29.9552 29.6514C29.4697 29.6514 29.0762 29.2579 29.0762 28.7723V25.3146C29.0762 24.829 29.4697 24.4355 29.9552 24.4355C30.4408 24.4355 30.8343 24.829 30.8343 25.3146V28.7723C30.8343 29.2579 30.4408 29.6514 29.9552 29.6514Z" fill="#203F9F"/>
<path d="M29.9552 36.5684C29.4697 36.5684 29.0762 36.1749 29.0762 35.6893V32.2316C29.0762 31.746 29.4697 31.3525 29.9552 31.3525C30.4408 31.3525 30.8343 31.746 30.8343 32.2316V35.6893C30.8343 36.1749 30.4408 36.5684 29.9552 36.5684Z" fill="#203F9F"/>
<path d="M15.0256 15.8203C14.54 15.8203 14.1465 15.4268 14.1465 14.9412V11.4836C14.1465 10.998 14.54 10.6045 15.0256 10.6045C15.5111 10.6045 15.9046 10.998 15.9046 11.4836V14.9412C15.9046 15.4268 15.5111 15.8203 15.0256 15.8203Z" fill="#203F9F"/>
<path d="M15.0256 22.7363C14.54 22.7363 14.1465 22.3428 14.1465 21.8573V18.3996C14.1465 17.914 14.54 17.5205 15.0256 17.5205C15.5111 17.5205 15.9046 17.914 15.9046 18.3996V21.8573C15.9046 22.3428 15.5111 22.7363 15.0256 22.7363Z" fill="#203F9F"/>
<path d="M15.0256 29.6514C14.54 29.6514 14.1465 29.2579 14.1465 28.7723V25.3146C14.1465 24.829 14.54 24.4355 15.0256 24.4355C15.5111 24.4355 15.9046 24.829 15.9046 25.3146V28.7723C15.9046 29.2579 15.5111 29.6514 15.0256 29.6514Z" fill="#203F9F"/>
<path d="M15.0256 36.5684C14.54 36.5684 14.1465 36.1749 14.1465 35.6893V32.2316C14.1465 31.746 14.54 31.3525 15.0256 31.3525C15.5111 31.3525 15.9046 31.746 15.9046 32.2316V35.6893C15.9046 36.1749 15.5111 36.5684 15.0256 36.5684Z" fill="#203F9F"/>
<path d="M49.1302 53.1462H34.3088C33.8232 53.1462 33.4297 52.7527 33.4297 52.2671C33.4297 51.7815 33.8232 51.388 34.3088 51.388H48.2511V21.3783H34.3088C33.8232 21.3783 33.4297 20.9848 33.4297 20.4992C33.4297 20.0136 33.8232 19.6201 34.3088 19.6201H49.1302C49.6157 19.6201 50.0092 20.0136 50.0092 20.4992V52.2671C50.0092 52.7527 49.6157 53.1462 49.1302 53.1462Z" fill="black"/>
<path d="M45.6992 26.1839H37.7248C37.2392 26.1839 36.8457 25.7904 36.8457 25.3049C36.8457 24.8193 37.2392 24.4258 37.7248 24.4258H45.6992C46.1848 24.4258 46.5782 24.8193 46.5782 25.3049C46.5782 25.7904 46.1848 26.1839 45.6992 26.1839Z" fill="#203F9F"/>
<path d="M45.6992 29.9056H37.7248C37.2392 29.9056 36.8457 29.5121 36.8457 29.0265C36.8457 28.541 37.2392 28.1475 37.7248 28.1475H45.6992C46.1848 28.1475 46.5782 28.541 46.5782 29.0265C46.5782 29.5121 46.1848 29.9056 45.6992 29.9056Z" fill="#203F9F"/>
<path d="M45.6992 33.6263H37.7248C37.2392 33.6263 36.8457 33.2328 36.8457 32.7472C36.8457 32.2617 37.2392 31.8682 37.7248 31.8682H45.6992C46.1848 31.8682 46.5782 32.2617 46.5782 32.7472C46.5782 33.2328 46.1848 33.6263 45.6992 33.6263Z" fill="#203F9F"/>
<path d="M45.6992 37.3499H37.7248C37.2392 37.3499 36.8457 36.9564 36.8457 36.4709C36.8457 35.9853 37.2392 35.5918 37.7248 35.5918H45.6992C46.1848 35.5918 46.5782 35.9853 46.5782 36.4709C46.5782 36.9564 46.1848 37.3499 45.6992 37.3499Z" fill="#203F9F"/>
<path d="M45.6992 41.0706H37.7248C37.2392 41.0706 36.8457 40.6771 36.8457 40.1916C36.8457 39.706 37.2392 39.3125 37.7248 39.3125H45.6992C46.1848 39.3125 46.5782 39.706 46.5782 40.1916C46.5782 40.6771 46.1848 41.0706 45.6992 41.0706Z" fill="#203F9F"/>
<path d="M45.6992 44.7923H37.7248C37.2392 44.7923 36.8457 44.3988 36.8457 43.9132C36.8457 43.4277 37.2392 43.0342 37.7248 43.0342H45.6992C46.1848 43.0342 46.5782 43.4277 46.5782 43.9132C46.5782 44.3988 46.1848 44.7923 45.6992 44.7923Z" fill="#203F9F"/>
<path d="M45.6992 48.514H37.7248C37.2392 48.514 36.8457 48.1205 36.8457 47.6349C36.8457 47.1493 37.2392 46.7559 37.7248 46.7559H45.6992C46.1848 46.7559 46.5782 47.1493 46.5782 47.6349C46.5782 48.1205 46.1848 48.514 45.6992 48.514Z" fill="#203F9F"/>
</svg>
